{
  "accessors": [
    {
      "bufferView": 2,
      "componentType": 5126,
      "count": 6003,
      "max": [
        0.20265200734138489,
        0.13825200498104095,
        0.01514699961990118
      ],
      "min": [
        -0.20265200734138489,
        -0.13825200498104095,
        -0.01514699961990118
      ],
      "type": "VEC3"
    },
    {
      "bufferView": 2,
      "byteOffset": 72036,
      "componentType": 5126,
      "count": 6003,
      "max": [
        1,
        1,
        1
      ],
      "min": [
        -1,
        -1,
        -1
      ],
      "type": "VEC3"
    },
    {
      "bufferView": 3,
      "componentType": 5126,
      "count": 6003,
      "max": [
        1,
        1,
        0.98359322547912598,
        1
      ],
      "min": [
        -1,
        -1,
        -0.98359662294387817,
        -1
      ],
      "type": "VEC4"
    },
    {
      "bufferView": 1,
      "componentType": 5126,
      "count": 6003,
      "max": [
        1.2499200105667114,
        0.98003000020980835
      ],
      "min": [
        -0.24991899728775024,
        0.23768199980258942
      ],
      "type": "VEC2"
    },
    {
      "bufferView": 0,
      "componentType": 5125,
      "count": 35136,
      "max": [
        6002
      ],
      "min": [
        0
      ],
      "type": "SCALAR"
    },
    {
      "bufferView": 2,
      "byteOffset": 144072,
      "componentType": 5126,
      "count": 14724,
      "max": [
        -0.061792999505996704,
        0.013555999845266342,
        0.028999999165534973
      ],
      "min": [
        -0.16760799288749695,
        -0.042915999889373779,
        0.014999999664723873
      ],
      "type": "VEC3"
    },
    {
      "bufferView": 2,
      "byteOffset": 320760,
      "componentType": 5126,
      "count": 14724,
      "max": [
        0.99968248605728149,
        0.99968248605728149,
        1
      ],
      "min": [
        -0.99968248605728149,
        -0.99968248605728149,
        -1
      ],
      "type": "VEC3"
    },
    {
      "bufferView": 3,
      "byteOffset": 96048,
      "componentType": 5126,
      "count": 14724,
      "max": [
        0.99998319149017334,
        0.99620574712753296,
        0.99989026784896851,
        1
      ],
      "min": [
        -0.87025099992752075,
        -0.99995934963226318,
        -0.99989032745361328,
        1
      ],
      "type": "VEC4"
    },
    {
      "bufferView": 1,
      "byteOffset": 48024,
      "componentType": 5126,
      "count": 14724,
      "max": [
        0.70280599594116211,
        0.99980002641677856
      ],
      "min": [
        0.00019900000188499689,
        0.00030200000037439167
      ],
      "type": "VEC2"
    },
    {
      "bufferView": 0,
      "byteOffset": 140544,
      "componentType": 5125,
      "count": 83904,
      "max": [
        14723
      ],
      "min": [
        0
      ],
      "type": "SCALAR"
    },
    {
      "bufferView": 2,
      "byteOffset": 497448,
      "componentType": 5126,
      "count": 11800,
      "max": [
        0.071163997054100037,
        0.013581999577581882,
        0.02910899929702282
      ],
      "min": [
        -0.16760100424289703,
        -0.07754400372505188,
        0.014891000464558601
      ],
      "type": "VEC3"
    },
    {
      "bufferView": 2,
      "byteOffset": 639048,
      "componentType": 5126,
      "count": 11800,
      "max": [
        0.99968248605728149,
        0.99968248605728149,
        1
      ],
      "min": [
        -0.99995768070220947,
        -1,
        -1
      ],
      "type": "VEC3"
    },
    {
      "bufferView": 3,
      "byteOffset": 331632,
      "componentType": 5126,
      "count": 11800,
      "max": [
        0,
        0,
        0,
        1
      ],
      "min": [
        0,
        0,
        0,
        1
      ],
      "type": "VEC4"
    },
    {
      "bufferView": 1,
      "byteOffset": 165816,
      "componentType": 5126,
      "count": 11800,
      "max": [
        0,
        0
      ],
      "min": [
        0,
        0
      ],
      "type": "VEC2"
    },
    {
      "bufferView": 0,
      "byteOffset": 476160,
      "componentType": 5125,
      "count": 70176,
      "max": [
        11799
      ],
      "min": [
        0
      ],
      "type": "SCALAR"
    }
  ],
  "asset": {
    "generator": "Sketchfab (OSG glTF plugin)",
    "version": "2.0"
  },
  "bufferViews": [
    {
      "buffer": 0,
      "byteLength": 756864,
      "byteOffset": 0,
      "name": "floatBufferViews",
      "target": 34963
    },
    {
      "buffer": 0,
      "byteLength": 260216,
      "byteOffset": 756864,
      "byteStride": 8,
      "name": "floatBufferViews",
      "target": 34962
    },
    {
      "buffer": 0,
      "byteLength": 780648,
      "byteOffset": 1017080,
      "byteStride": 12,
      "name": "floatBufferViews",
      "target": 34962
    },
    {
      "buffer": 0,
      "byteLength": 520432,
      "byteOffset": 1797728,
      "byteStride": 16,
      "name": "floatBufferViews",
      "target": 34962
    }
  ],
  "buffers": [
    {
      "byteLength": 2318160,
      "uri": "cutting_board.bin"
    }
  ],
  "extensionsRequired": [
    "KHR_materials_pbrSpecularGlossiness"
  ],
  "extensionsUsed": [
    "KHR_materials_pbrSpecularGlossiness"
  ],
  "images": [
    {
      "uri": "textures/Metal_diffuse.jpg"
    },
    {
      "uri": "textures/Metal_specularGlossiness.png"
    },
    {
      "uri": "textures/Metal_normal.jpg"
    },
    {
      "uri": "textures/Deska_diffuse.jpg"
    },
    {
      "uri": "textures/Deska_specularGlossiness.png"
    },
    {
      "uri": "textures/Deska_normal.jpg"
    },
    {
      "uri": "textures/Drewno_diffuse.jpg"
    },
    {
      "uri": "textures/Drewno_specularGlossiness.png"
    },
    {
      "uri": "textures/Drewno_normal.jpg"
    }
  ],
  "materials": [
    {
      "doubleSided": true,
      "emissiveFactor": [
        0,
        0,
        0
      ],
      "extensions": {
        "KHR_materials_pbrSpecularGlossiness": {
          "diffuseFactor": [
            1,
            1,
            1,
            1
          ],
          "diffuseTexture": {
            "index": 3,
            "texCoord": 0
          },
          "glossinessFactor": 1,
          "specularFactor": [
            1,
            1,
            1
          ],
          "specularGlossinessTexture": {
            "index": 4,
            "texCoord": 0
          }
        }
      },
      "name": "Deska",
      "normalTexture": {
        "index": 5,
        "scale": 1,
        "texCoord": 0
      }
    },
    {
      "doubleSided": true,
      "emissiveFactor": [
        0,
        0,
        0
      ],
      "extensions": {
        "KHR_materials_pbrSpecularGlossiness": {
          "diffuseFactor": [
            1,
            1,
            1,
            1
          ],
          "diffuseTexture": {
            "index": 6,
            "texCoord": 0
          },
          "glossinessFactor": 1,
          "specularFactor": [
            1,
            1,
            1
          ],
          "specularGlossinessTexture": {
            "index": 7,
            "texCoord": 0
          }
        }
      },
      "name": "Drewno",
      "normalTexture": {
        "index": 8,
        "scale": 1,
        "texCoord": 0
      }
    },
    {
      "doubleSided": true,
      "emissiveFactor": [
        0,
        0,
        0
      ],
      "extensions": {
        "KHR_materials_pbrSpecularGlossiness": {
          "diffuseFactor": [
            1,
            1,
            1,
            1
          ],
          "diffuseTexture": {
            "index": 0,
            "texCoord": 0
          },
          "glossinessFactor": 1,
          "specularFactor": [
            0.68999999999999995,
            0.68999999999999995,
            0.68999999999999995
          ],
          "specularGlossinessTexture": {
            "index": 1,
            "texCoord": 0
          }
        }
      },
      "name": "Metal",
      "normalTexture": {
        "index": 2,
        "scale": 1,
        "texCoord": 0
      }
    }
  ],
  "meshes": [
    {
      "primitives": [
        {
          "attributes": {
            "NORMAL": 1,
            "POSITION": 0,
            "TANGENT": 2,
            "TEXCOORD_0": 3
          },
          "indices": 4,
          "material": 0,
          "mode": 4
        }
      ]
    },
    {
      "primitives": [
        {
          "attributes": {
            "NORMAL": 6,
            "POSITION": 5,
            "TANGENT": 7,
            "TEXCOORD_0": 8
          },
          "indices": 9,
          "material": 1,
          "mode": 4
        }
      ]
    },
    {
      "primitives": [
        {
          "attributes": {
            "NORMAL": 11,
            "POSITION": 10,
            "TANGENT": 12,
            "TEXCOORD_0": 13
          },
          "indices": 14,
          "material": 2,
          "mode": 4
        }
      ]
    }
  ],
  "nodes": [
    {
      "children": [
        1
      ],
      "name": "RootNode (gltf orientation matrix)",
      "rotation": [
        -0.70710678118654746,
        -0,
        -0,
        0.70710678118654757
      ]
    },
    {
      "children": [
        2
      ],
      "name": "RootNode (model correction matrix)"
    },
    {
      "children": [
        3
      ],
      "name": "deska.obj.cleaner.gles"
    },
    {
      "children": [
        4,
        5,
        6
      ],
      "name": "Geode"
    },
    {
      "mesh": 0,
      "name": ""
    },
    {
      "mesh": 1,
      "name": ""
    },
    {
      "mesh": 2,
      "name": ""
    }
  ],
  "samplers": [
    {
      "magFilter": 9729,
      "minFilter": 9987,
      "wrapS": 10497,
      "wrapT": 10497
    }
  ],
  "scene": 0,
  "scenes": [
    {
      "name": "OSG_Scene",
      "nodes": [
        0
      ]
    }
  ],
  "textures": [
    {
      "sampler": 0,
      "source": 0
    },
    {
      "sampler": 0,
      "source": 1
    },
    {
      "sampler": 0,
      "source": 2
    },
    {
      "sampler": 0,
      "source": 3
    },
    {
      "sampler": 0,
      "source": 4
    },
    {
      "sampler": 0,
      "source": 5
    },
    {
      "sampler": 0,
      "source": 6
    },
    {
      "sampler": 0,
      "source": 7
    },
    {
      "sampler": 0,
      "source": 8
    }
  ]
}

