{
  "accessors": [
    {
      "bufferView": 2,
      "componentType": 5126,
      "count": 56823,
      "max": [
        26.052421569824219,
        11.946830749511719,
        34.289047241210938
      ],
      "min": [
        -3.4997959136962891,
        -20.827327728271484,
        -7.9376568794250488
      ],
      "type": "VEC3"
    },
    {
      "bufferView": 2,
      "byteOffset": 681876,
      "componentType": 5126,
      "count": 56823,
      "max": [
        0.99998253583908081,
        1,
        1
      ],
      "min": [
        -0.99999988079071045,
        -0.99999541044235229,
        -0.99999994039535522
      ],
      "type": "VEC3"
    },
    {
      "bufferView": 3,
      "componentType": 5126,
      "count": 56823,
      "max": [
        0.99999982118606567,
        0.99999463558197021,
        0.99990552663803101,
        1
      ],
      "min": [
        -0.999988853931427,
        -0.99989181756973267,
        -0.99992173910140991,
        1
      ],
      "type": "VEC4"
    },
    {
      "bufferView": 1,
      "componentType": 5126,
      "count": 56823,
      "max": [
        0.91884899139404297,
        0.95961302518844604
      ],
      "min": [
        0.040387000888586044,
        0.034049998968839645
      ],
      "type": "VEC2"
    },
    {
      "bufferView": 0,
      "componentType": 5125,
      "count": 305322,
      "max": [
        56822
      ],
      "min": [
        0
      ],
      "type": "SCALAR"
    }
  ],
  "asset": {
    "generator": "Sketchfab (OSG glTF plugin)",
    "version": "2.0"
  },
  "bufferViews": [
    {
      "buffer": 0,
      "byteLength": 1221288,
      "byteOffset": 0,
      "name": "floatBufferViews",
      "target": 34963
    },
    {
      "buffer": 0,
      "byteLength": 454584,
      "byteOffset": 1221288,
      "byteStride": 8,
      "name": "floatBufferViews",
      "target": 34962
    },
    {
      "buffer": 0,
      "byteLength": 1363752,
      "byteOffset": 1675872,
      "byteStride": 12,
      "name": "floatBufferViews",
      "target": 34962
    },
    {
      "buffer": 0,
      "byteLength": 909168,
      "byteOffset": 3039624,
      "byteStride": 16,
      "name": "floatBufferViews",
      "target": 34962
    }
  ],
  "buffers": [
    {
      "byteLength": 3948792,
      "uri": "knight.bin"
    }
  ],
  "images": [
    {
      "uri": "textures/material_0_baseColor.png"
    }
  ],
  "materials": [
    {
      "doubleSided": true,
      "emissiveFactor": [
        0,
        0,
        0
      ],
      "name": "material_0",
      "pbrMetallicRoughness": {
        "baseColorFactor": [
          1,
          1,
          1,
          1
        ],
        "baseColorTexture": {
          "index": 0,
          "texCoord": 0
        },
        "metallicFactor": 0,
        "roughnessFactor": 0.43765867479999998
      }
    }
  ],
  "meshes": [
    {
      "primitives": [
        {
          "attributes": {
            "NORMAL": 1,
            "POSITION": 0,
            "TANGENT": 2,
            "TEXCOORD_0": 3
          },
          "indices": 4,
          "material": 0,
          "mode": 4
        }
      ]
    }
  ],
  "nodes": [
    {
      "children": [
        1
      ],
      "name": "RootNode (gltf orientation matrix)",
      "rotation": [
        -0.70710678118654746,
        -0,
        -0,
        0.70710678118654757
      ]
    },
    {
      "children": [
        2
      ],
      "matrix": [
        1,
        0,
        0,
        0,
        0,
        0.64607173204421997,
        -0.76327669620513916,
        0,
        0,
        0.76327669620513916,
        0.64607173204421997,
        0,
        0,
        -11.62825870513916,
        1.2741752862930298,
        1
      ],
      "name": "RootNode (model correction matrix)"
    },
    {
      "children": [
        3
      ],
      "name": "Knight with Hammer.obj.cleaner.materialmerger.gles"
    },
    {
      "children": [
        4
      ],
      "name": "Geode"
    },
    {
      "mesh": 0,
      "name": ""
    }
  ],
  "samplers": [
    {
      "magFilter": 9729,
      "minFilter": 9987,
      "wrapS": 10497,
      "wrapT": 10497
    }
  ],
  "scene": 0,
  "scenes": [
    {
      "name": "OSG_Scene",
      "nodes": [
        0
      ]
    }
  ],
  "textures": [
    {
      "sampler": 0,
      "source": 0
    }
  ]
}

