{
  "accessors": [
    {
      "bufferView": 2,
      "componentType": 5126,
      "count": 4,
      "max": [
        7.476010799407959,
        7.476010799407959,
        0
      ],
      "min": [
        -7.476010799407959,
        -7.476010799407959,
        0
      ],
      "type": "VEC3"
    },
    {
      "bufferView": 2,
      "byteOffset": 48,
      "componentType": 5126,
      "count": 4,
      "max": [
        0,
        0,
        1
      ],
      "min": [
        0,
        0,
        1
      ],
      "type": "VEC3"
    },
    {
      "bufferView": 0,
      "componentType": 5125,
      "count": 6,
      "max": [
        3
      ],
      "min": [
        0
      ],
      "type": "SCALAR"
    },
    {
      "bufferView": 2,
      "byteOffset": 96,
      "componentType": 5126,
      "count": 1854,
      "max": [
        2.4514355659484863,
        1.6980506181716919,
        2.7703971862792969
      ],
      "min": [
        -2.4514355659484863,
        -1.8635067939758301,
        0
      ],
      "type": "VEC3"
    },
    {
      "bufferView": 2,
      "byteOffset": 22344,
      "componentType": 5126,
      "count": 1854,
      "max": [
        1,
        1,
        1
      ],
      "min": [
        -1,
        -1,
        -1
      ],
      "type": "VEC3"
    },
    {
      "bufferView": 3,
      "componentType": 5126,
      "count": 1854,
      "max": [
        1,
        1,
        1,
        1
      ],
      "min": [
        -0.72985935211181641,
        -1,
        -1,
        1
      ],
      "type": "VEC4"
    },
    {
      "bufferView": 3,
      "byteOffset": 29664,
      "componentType": 5126,
      "count": 1854,
      "max": [
        1,
        1,
        1,
        1
      ],
      "min": [
        1,
        1,
        1,
        1
      ],
      "type": "VEC4"
    },
    {
      "bufferView": 1,
      "componentType": 5126,
      "count": 1854,
      "max": [
        0.98911416530609131,
        0.94628012180328369
      ],
      "min": [
        0.09215247631072998,
        0.011205364018678665
      ],
      "type": "VEC2"
    },
    {
      "bufferView": 0,
      "byteOffset": 24,
      "componentType": 5125,
      "count": 6936,
      "max": [
        1853
      ],
      "min": [
        0
      ],
      "type": "SCALAR"
    },
    {
      "bufferView": 2,
      "byteOffset": 44592,
      "componentType": 5126,
      "count": 2079,
      "max": [
        3.9793617725372314,
        2.4586915969848633e-07,
        1.3851988315582275
      ],
      "min": [
        0,
        -0.38873866200447083,
        -1.3851984739303589
      ],
      "type": "VEC3"
    },
    {
      "bufferView": 2,
      "byteOffset": 69540,
      "componentType": 5126,
      "count": 2079,
      "max": [
        1,
        1,
        1
      ],
      "min": [
        -1,
        -1,
        -1
      ],
      "type": "VEC3"
    },
    {
      "bufferView": 3,
      "byteOffset": 59328,
      "componentType": 5126,
      "count": 2079,
      "max": [
        1,
        1,
        0.99986118078231812,
        1
      ],
      "min": [
        -0.99999094009399414,
        -0.99999088048934937,
        -1,
        -1
      ],
      "type": "VEC4"
    },
    {
      "bufferView": 3,
      "byteOffset": 92592,
      "componentType": 5126,
      "count": 2079,
      "max": [
        1,
        1,
        1,
        1
      ],
      "min": [
        1,
        1,
        1,
        1
      ],
      "type": "VEC4"
    },
    {
      "bufferView": 1,
      "byteOffset": 14832,
      "componentType": 5126,
      "count": 2079,
      "max": [
        0.29943990707397461,
        0.87374264001846313
      ],
      "min": [
        0.0036898255348205566,
        0.019722588360309601
      ],
      "type": "VEC2"
    },
    {
      "bufferView": 0,
      "byteOffset": 27768,
      "componentType": 5125,
      "count": 9648,
      "max": [
        2078
      ],
      "min": [
        0
      ],
      "type": "SCALAR"
    },
    {
      "bufferView": 2,
      "byteOffset": 94488,
      "componentType": 5126,
      "count": 706,
      "max": [
        3.9793620109558105,
        -0.15777769684791565,
        1.232563853263855
      ],
      "min": [
        0.47028845548629761,
        -0.19654235243797302,
        -1.1794219017028809
      ],
      "type": "VEC3"
    },
    {
      "bufferView": 2,
      "byteOffset": 102960,
      "componentType": 5126,
      "count": 706,
      "max": [
        0.99992287158966064,
        1,
        0.99931800365447998
      ],
      "min": [
        -0.99905657768249512,
        -1,
        -0.99973452091217041
      ],
      "type": "VEC3"
    },
    {
      "bufferView": 3,
      "byteOffset": 125856,
      "componentType": 5126,
      "count": 706,
      "max": [
        0.99999988079071045,
        0.99998676776885986,
        0.60511094331741333,
        1
      ],
      "min": [
        -0.5736575722694397,
        -0.99977606534957886,
        -0.99858444929122925,
        -1
      ],
      "type": "VEC4"
    },
    {
      "bufferView": 3,
      "byteOffset": 137152,
      "componentType": 5126,
      "count": 706,
      "max": [
        1,
        1,
        1,
        1
      ],
      "min": [
        1,
        1,
        1,
        1
      ],
      "type": "VEC4"
    },
    {
      "bufferView": 0,
      "byteOffset": 66360,
      "componentType": 5125,
      "count": 2976,
      "max": [
        705
      ],
      "min": [
        0
      ],
      "type": "SCALAR"
    },
    {
      "bufferView": 2,
      "byteOffset": 111432,
      "componentType": 5126,
      "count": 898,
      "max": [
        1.2677414417266846,
        1.2677414417266846,
        0.30733516812324524
      ],
      "min": [
        -1.2677414417266846,
        -1.2677414417266846,
        0.15750733017921448
      ],
      "type": "VEC3"
    },
    {
      "bufferView": 2,
      "byteOffset": 122208,
      "componentType": 5126,
      "count": 898,
      "max": [
        1,
        1,
        1
      ],
      "min": [
        -1,
        -1,
        -1
      ],
      "type": "VEC3"
    },
    {
      "bufferView": 3,
      "byteOffset": 148448,
      "componentType": 5126,
      "count": 898,
      "max": [
        0.99466484785079956,
        0.76732659339904785,
        0.99999988079071045,
        1
      ],
      "min": [
        -0.62635481357574463,
        -0.8740813136100769,
        -0.99999988079071045,
        1
      ],
      "type": "VEC4"
    },
    {
      "bufferView": 0,
      "byteOffset": 78264,
      "componentType": 5125,
      "count": 5088,
      "max": [
        897
      ],
      "min": [
        0
      ],
      "type": "SCALAR"
    },
    {
      "bufferView": 2,
      "byteOffset": 132984,
      "componentType": 5126,
      "count": 816,
      "max": [
        0.94903659820556641,
        0.94903653860092163,
        0.14592061936855316
      ],
      "min": [
        -0.94903659820556641,
        -0.94903659820556641,
        0.065888583660125732
      ],
      "type": "VEC3"
    },
    {
      "bufferView": 2,
      "byteOffset": 142776,
      "componentType": 5126,
      "count": 816,
      "max": [
        1,
        1,
        0.99994993209838867
      ],
      "min": [
        -1,
        -1,
        -0.99994993209838867
      ],
      "type": "VEC3"
    },
    {
      "bufferView": 3,
      "byteOffset": 162816,
      "componentType": 5126,
      "count": 816,
      "max": [
        0.99841701984405518,
        0.99690783023834229,
        1,
        1
      ],
      "min": [
        -0.99357670545578003,
        -0.99039852619171143,
        -0.99999994039535522,
        1
      ],
      "type": "VEC4"
    },
    {
      "bufferView": 1,
      "byteOffset": 31464,
      "componentType": 5126,
      "count": 816,
      "max": [
        0.29780369997024536,
        0.98192721605300903
      ],
      "min": [
        0.22627566754817963,
        0.91303771734237671
      ],
      "type": "VEC2"
    },
    {
      "bufferView": 0,
      "byteOffset": 98616,
      "componentType": 5125,
      "count": 4608,
      "max": [
        815
      ],
      "min": [
        0
      ],
      "type": "SCALAR"
    },
    {
      "bufferView": 4,
      "componentType": 5126,
      "count": 2,
      "max": [
        5
      ],
      "min": [
        0
      ],
      "type": "SCALAR"
    },
    {
      "bufferView": 5,
      "componentType": 5126,
      "count": 2,
      "max": [
        -2.4514355659484863,
        -1.5196161270141602,
        1.3851982355117798
      ],
      "min": [
        -2.4514355659484863,
        -1.5196161270141602,
        1.3851982355117798
      ],
      "type": "VEC3"
    },
    {
      "bufferView": 4,
      "byteOffset": 8,
      "componentType": 5126,
      "count": 2,
      "max": [
        5
      ],
      "min": [
        0
      ],
      "type": "SCALAR"
    },
    {
      "bufferView": 5,
      "byteOffset": 24,
      "componentType": 5126,
      "count": 2,
      "max": [
        1,
        1,
        1
      ],
      "min": [
        1,
        1,
        1
      ],
      "type": "VEC3"
    },
    {
      "bufferView": 4,
      "byteOffset": 16,
      "componentType": 5126,
      "count": 151,
      "max": [
        5
      ],
      "min": [
        0
      ],
      "type": "SCALAR"
    },
    {
      "bufferView": 6,
      "componentType": 5126,
      "count": 151,
      "max": [
        1.4659353292345939e-23,
        1.4796069198107982e-23,
        0,
        1
      ],
      "min": [
        -2.7240345244804012e-23,
        -1.879544568172833e-23,
        -0.70638102293014526,
        0.70783179998397827
      ],
      "type": "VEC4"
    }
  ],
  "animations": [
    {
      "channels": [
        {
          "sampler": 0,
          "target": {
            "node": 14,
            "path": "translation"
          }
        },
        {
          "sampler": 1,
          "target": {
            "node": 14,
            "path": "scale"
          }
        },
        {
          "sampler": 2,
          "target": {
            "node": 14,
            "path": "rotation"
          }
        }
      ],
      "name": "Plane.003|Plane.003Action",
      "samplers": [
        {
          "input": 29,
          "interpolation": "LINEAR",
          "output": 30
        },
        {
          "input": 31,
          "interpolation": "LINEAR",
          "output": 32
        },
        {
          "input": 33,
          "interpolation": "LINEAR",
          "output": 34
        }
      ]
    }
  ],
  "asset": {
    "generator": "Sketchfab (OSG glTF plugin)",
    "version": "2.0"
  },
  "bufferViews": [
    {
      "buffer": 0,
      "byteLength": 117048,
      "byteOffset": 0,
      "name": "floatBufferViews",
      "target": 34963
    },
    {
      "buffer": 0,
      "byteLength": 37992,
      "byteOffset": 117048,
      "byteStride": 8,
      "name": "floatBufferViews",
      "target": 34962
    },
    {
      "buffer": 0,
      "byteLength": 152568,
      "byteOffset": 155040,
      "byteStride": 12,
      "name": "floatBufferViews",
      "target": 34962
    },
    {
      "buffer": 0,
      "byteLength": 175872,
      "byteOffset": 307608,
      "byteStride": 16,
      "name": "floatBufferViews",
      "target": 34962
    },
    {
      "buffer": 0,
      "byteLength": 620,
      "byteOffset": 483480,
      "name": "floatBufferViews"
    },
    {
      "buffer": 0,
      "byteLength": 48,
      "byteOffset": 484100,
      "byteStride": 12,
      "name": "floatBufferViews"
    },
    {
      "buffer": 0,
      "byteLength": 2416,
      "byteOffset": 484148,
      "byteStride": 16,
      "name": "floatBufferViews"
    }
  ],
  "buffers": [
    {
      "byteLength": 486564,
      "uri": "micro.bin"
    }
  ],
  "images": [
    {
      "uri": "textures/Material_baseColor.jpg"
    }
  ],
  "materials": [
    {
      "alphaMode": "BLEND",
      "doubleSided": true,
      "emissiveFactor": [
        0,
        0,
        0
      ],
      "name": "RootNode",
      "pbrMetallicRoughness": {
        "baseColorFactor": [
          1,
          1,
          1,
          0
        ],
        "metallicFactor": 0,
        "roughnessFactor": 0.20000000000000001
      }
    },
    {
      "doubleSided": true,
      "emissiveFactor": [
        0,
        0,
        0
      ],
      "name": "Material",
      "pbrMetallicRoughness": {
        "baseColorFactor": [
          1,
          1,
          1,
          1
        ],
        "baseColorTexture": {
          "index": 0,
          "texCoord": 0
        },
        "metallicFactor": 0.56999999999999995,
        "roughnessFactor": 0.34999999999999998
      }
    },
    {
      "alphaMode": "BLEND",
      "doubleSided": true,
      "emissiveFactor": [
        0,
        0,
        0
      ],
      "name": "Material.001",
      "pbrMetallicRoughness": {
        "baseColorFactor": [
          0.40999999999999998,
          0.40999999999999998,
          0.40999999999999998,
          0.65000000000000002
        ],
        "metallicFactor": 1,
        "roughnessFactor": 0.17000000000000004
      }
    }
  ],
  "meshes": [
    {
      "name": "Plane__0",
      "primitives": [
        {
          "attributes": {
            "NORMAL": 1,
            "POSITION": 0
          },
          "indices": 2,
          "material": 0,
          "mode": 4
        }
      ]
    },
    {
      "name": "Plane.001_Material_0",
      "primitives": [
        {
          "attributes": {
            "COLOR_0": 6,
            "NORMAL": 4,
            "POSITION": 3,
            "TANGENT": 5,
            "TEXCOORD_0": 7
          },
          "indices": 8,
          "material": 1,
          "mode": 4
        }
      ]
    },
    {
      "name": "Plane.003_Material_0",
      "primitives": [
        {
          "attributes": {
            "COLOR_0": 12,
            "NORMAL": 10,
            "POSITION": 9,
            "TANGENT": 11,
            "TEXCOORD_0": 13
          },
          "indices": 14,
          "material": 1,
          "mode": 4
        }
      ]
    },
    {
      "name": "Plane.003_Material.001_0",
      "primitives": [
        {
          "attributes": {
            "COLOR_0": 18,
            "NORMAL": 16,
            "POSITION": 15,
            "TANGENT": 17
          },
          "indices": 19,
          "material": 2,
          "mode": 4
        }
      ]
    },
    {
      "name": "Circle_Material.001_0",
      "primitives": [
        {
          "attributes": {
            "NORMAL": 21,
            "POSITION": 20,
            "TANGENT": 22
          },
          "indices": 23,
          "material": 2,
          "mode": 4
        }
      ]
    },
    {
      "name": "Circle_Material_0",
      "primitives": [
        {
          "attributes": {
            "NORMAL": 25,
            "POSITION": 24,
            "TANGENT": 26,
            "TEXCOORD_0": 27
          },
          "indices": 28,
          "material": 1,
          "mode": 4
        }
      ]
    }
  ],
  "nodes": [
    {
      "children": [
        1
      ],
      "name": "RootNode (gltf orientation matrix)",
      "rotation": [
        -0.70710678118654746,
        -0,
        -0,
        0.70710678118654757
      ]
    },
    {
      "children": [
        2
      ],
      "name": "RootNode (model correction matrix)"
    },
    {
      "children": [
        3
      ],
      "matrix": [
        1,
        0,
        0,
        0,
        0,
        0,
        1,
        0,
        0,
        -1,
        0,
        0,
        0,
        0,
        0,
        1
      ],
      "name": "6201517cdead46f68e5c35f124841292.fbx"
    },
    {
      "children": [
        4
      ],
      "name": ""
    },
    {
      "children": [
        5,
        8,
        11
      ],
      "name": "RootNode"
    },
    {
      "children": [
        6
      ],
      "name": "Plane",
      "rotation": [
        -0.7071068286895752,
        0,
        0,
        0.70710670948028564
      ],
      "scale": [
        100,
        100,
        100
      ]
    },
    {
      "children": [
        7
      ],
      "name": "Geode"
    },
    {
      "mesh": 0,
      "name": "Plane__0"
    },
    {
      "children": [
        9
      ],
      "name": "Hemi",
      "rotation": [
        0.31881967186927795,
        -0.087347216904163361,
        -0.067948661744594574,
        0.94133281707763672
      ],
      "scale": [
        100,
        100,
        100
      ],
      "translation": [
        654.3082275390625,
        993.10113525390625,
        771.60955810546875
      ]
    },
    {
      "children": [
        10
      ],
      "matrix": [
        1,
        0,
        0,
        0,
        0,
        2.2204460492503131e-16,
        1,
        0,
        0,
        -1,
        2.2204460492503131e-16,
        0,
        0,
        0,
        0,
        1
      ],
      "name": ""
    },
    {
      "name": ""
    },
    {
      "children": [
        12,
        14,
        18
      ],
      "name": "Plane.001",
      "rotation": [
        -0.7071068286895752,
        0,
        0,
        0.70710670948028564
      ],
      "scale": [
        100,
        100,
        100
      ]
    },
    {
      "children": [
        13
      ],
      "name": "Geode"
    },
    {
      "mesh": 1,
      "name": "Plane.001_Material_0"
    },
    {
      "children": [
        15
      ],
      "name": "Plane.003",
      "rotation": [
        -1.3234889800848443e-23,
        -0,
        0,
        1
      ],
      "translation": [
        -2.4514355659484863,
        -1.5196161270141602,
        1.3851982355117798
      ]
    },
    {
      "children": [
        16,
        17
      ],
      "name": "Geode"
    },
    {
      "mesh": 2,
      "name": "Plane.003_Material_0"
    },
    {
      "mesh": 3,
      "name": "Plane.003_Material.001_0"
    },
    {
      "children": [
        19
      ],
      "name": "Circle",
      "rotation": [
        -1.3234889800848443e-23,
        -6.4056492839267233e-33,
        4.8399717567093603e-10,
        1
      ],
      "translation": [
        -0.39945703744888306,
        -0.15760111808776855,
        0.17576956748962402
      ]
    },
    {
      "children": [
        20,
        21
      ],
      "name": "Geode"
    },
    {
      "mesh": 4,
      "name": "Circle_Material.001_0"
    },
    {
      "mesh": 5,
      "name": "Circle_Material_0"
    }
  ],
  "samplers": [
    {
      "magFilter": 9729,
      "minFilter": 9987,
      "wrapS": 10497,
      "wrapT": 10497
    }
  ],
  "scene": 0,
  "scenes": [
    {
      "name": "OSG_Scene",
      "nodes": [
        0
      ]
    }
  ],
  "textures": [
    {
      "sampler": 0,
      "source": 0
    }
  ]
}

